<svg xmlns="http://www.w3.org/2000/svg" xmlns:xlink="http://www.w3.org/1999/xlink" xml:space="preserve" id="Layer_1" x="0" y="0" version="1.1" viewBox="0 0 2032.6 833.4">
  <style>
    .st1{fill:#2f3c4f}.st2{fill:#fcb040}.st3{fill:#e36c25}.st4{fill:#f4c389}.st7{fill:#7d99ad}.st8{fill:#4f6e86}.st9{fill:#edf7fd}.st12{fill:#ccbea8}.st48{fill:none}
  </style>
  <defs>
    <path id="SVGID_00000159464999573322097850000005070653235860504729_" d="M0 0h2032.6v833.4H0z"/>
  </defs>
  <clipPath id="SVGID_00000044139981699992131510000015669249580675999876_">
    <use xlink:href="#SVGID_00000159464999573322097850000005070653235860504729_" overflow="visible"/>
  </clipPath>
  <g clip-path="url(#SVGID_00000044139981699992131510000015669249580675999876_)">
    <path id="Path_252" d="m674.4 652.9-69 135-155.7-50.3L677 589.2l-2.6 63.7z" class="st12"/>
    <path id="Path_1083_00000076592885089153667190000009675805323249583013_" d="m1828.3 163.2-215.9 156.2-9.1-117.2 220.5-108.8 4.5 69.8z" class="st12"/>
    <path id="Path_1022_00000137852101584928936480000011733996770709939107_" fill="#ddd4c6" d="m2209.6 588.7-527.7 173.9-253.2-156.5-319.1-230.3h-192l-2.9-37.1 735.1-108.3 559.8 358.3z"/>
    <path id="Union_1" fill="#e8decf" d="m1212.9 1879.1-368.4-49.5-250.7 72-192.6-21.9-85.2-61.5L.6 1829.6V546.5l186.2 122.9 167.8-50.3 322.2-30-100 137.3L706 701.7 824.3 657l145.4 134.3 240.8-153.1 104.8-33.7 197.5 10.2-69.9-42.2-330.2-233.4H914.2l368.3-256.2 541.8 10.5-167.5 93.5 460.7-50.4 35.7 436.1-115.4 34.4v1294.7l-68.9-36.1-107.2 47.3-198.7-59.6-203.8 76.7-246.3-50.9z"/>
    <path id="Rectangle_31_00000027586031458263733050000010896458250876827837_" d="M991.6 57.8h240.8v177.9H991.6z" class="st48"/>
    <path id="Rectangle_25_00000000913661960511781110000016921800613240309411_" d="M1398 198.1h253.1v174.1H1398z" class="st48"/>
    <path id="Path_161_00000139251990293109152250000007481755483274221489_" d="m1460.9 102.3 52.1-29.2 10 5.7-52.1 29.2-10-5.7z" class="st7"/>
    <path id="Path_162_00000134958660864322958880000016783800349532739981_" d="m1470.7 235 52.1-29.2.2-127-52.1 29.2-.2 127z" class="st1"/>
    <path id="Path_163_00000073723135370585060710000004749523132516381095_" d="m1460.9 102.3.1 127.5 10 5.7-.1-127.5-10-5.7z" class="st8"/>
    <path id="Path_164_00000102519573349921671110000012448096756905881742_" d="m1532.6 319.9-64.9-37.4V95l64.9 37.4v187.5z" class="st8"/>
    <path id="Path_165_00000038396564495277150390000010886615454798934438_" d="m1509.3 300.9-30.2-17.4c-2.9-1.7-4.7-4.8-4.7-8.1v-120c0-5.2 4.2-9.4 9.4-9.4 1.6 0 3.3.4 4.7 1.3l30.2 17.4c2.9 1.7 4.7 4.8 4.7 8.1v120c0 5.2-4.2 9.4-9.4 9.4-1.7-.1-3.3-.5-4.7-1.3" class="st9"/>
    <path id="Path_166_00000173877976815433748780000013374872973236755628_" d="m1532.6 320.1 66.7-37.4V95.3l-66.7 37.4v187.4z" class="st1"/>
    <path id="Path_167_00000085223831428778911110000015214801760416264377_" d="m1467.6 95.1 66.7-37.4 65 37.3-66.7 37.4-65-37.3z" class="st7"/>
    <path id="Path_168_00000165918499774075089600000001966546503744391081_" d="m1474.4 31 52-29.2 50.7 29.1-52.1 29.2-50.6-29.1z" class="st7"/>
    <path id="Path_169_00000105402226538148533380000007544348670675837086_" d="m1525 113.1 52-29.2.2-52.9-52 29.2-.2 52.9z" class="st1"/>
    <path id="Path_170_00000095307206619654542420000016826553698920113294_" d="m1474.4 31 .1 53.4 50.7 29.1-.1-53.4-50.7-29.1z" class="st8"/>
    <path id="Path_171_00000083068349273388328240000017517032365943127685_" d="M1483.9 48.7v12.7l7.9 4.5V53.2l-7.9-4.5z" class="st9"/>
    <path id="Path_172_00000046315910231767033050000014809042011199760287_" d="M1505 60.2v12.7l7.9 4.5V64.7l-7.9-4.5z" class="st9"/>
    <path id="Path_173_00000098899401196485980460000013130303511888131507_" d="M1502.3 85.6v10.1l-16.9 8.9 16.9-19z" class="st3"/>
    <path id="Path_174_00000096744996549271340490000018213016914227474075_" d="m1487.2 76.7 15.1 8.9-16.9 19-12.2-8.4 14-19.5z" class="st2"/>
    <path id="Path_175_00000106122791804622025010000004406778981720257153_" d="M1488.9 285.5v10.1l-16.9 8.9 16.9-19z" class="st3"/>
    <path id="Path_176_00000163035639301643813860000005827974647875044743_" d="m1473.8 276.6 15.1 8.9-16.9 19-12.2-8.4 14-19.5z" class="st2"/>
    <path id="Path_177_00000176733393140269896070000003700715458883629736_" d="M1523.6 303.9V314l-16.9 8.9 16.9-19z" class="st3"/>
    <path id="Path_178_00000049206441922509662430000002149872067222356670_" d="m1508.5 295 15.1 8.9-16.9 19-12.2-8.4 14-19.5z" class="st2"/>
    <path id="Path_179_00000129195507705818109470000007706171712427350918_" d="m1540.2 38.7 52.1-29.2 10 5.7-52.1 29.2-10-5.7z" class="st7"/>
    <path id="Path_180_00000155131704514256554990000002255626265717977516_" d="m1550 171.4 27.2-15.2 24.9-14 .2-127-52.1 29.2-.2 127z" class="st1"/>
    <path id="Path_181_00000120517439726222164110000018016275715235648136_" d="m1540.2 38.7.1 127.5 10 5.7-.1-127.5-10-5.7z" class="st8"/>
    <path id="Path_1353_00000105386260178077170500000015510922450332932282_" d="M1331.6 383.3v51.1l-39.9-22.8v-51.1l39.9 22.8z" class="st1"/>
    <path id="Path_1354_00000106144507237753064520000002897572578976084655_" d="m1291.7 360.5 39.9-22.8 39.9 22.8-39.9 22.8-39.9-22.8z" class="st7"/>
    <path id="Path_1355_00000175318058539352598880000005546700037919303328_" d="M1371.5 360.5v51.1l-2 1.1-19.9 11.4-18 10.3v-51.1l8.6-4.9 31.3-17.9z" class="st8"/>
    <g id="Group_517_00000076595261020901326470000010946774192277765782_" transform="translate(-893.92 -4402.419)">
      <path id="Path_1356_00000167389414631873823840000006809733674948207011_" d="m2379.3 4778.4-26-15.5v30.5l26-15z" class="st4"/>
      <path id="Path_1357_00000126296922156772842680000011805247446984315784_" d="M2353.3 4793.4V4763l-29 16.7v.2l25.8 15.4 3.2-1.9z" class="st4"/>
      <path id="Path_1358_00000134216770572094949200000002853223535723568543_" d="m2379.3 4811.5-29 16.8-.1-21.1v-11.9l11.7-6.8 5-2.9 12.4-7.1" class="st2"/>
      <path id="Path_1359_00000057859064921319360480000016206204826427748747_" d="m2350.2 4828.2-25.9-15.4-.1-33 26 15.5v32.9z" class="st3"/>
    </g>
    <g id="Group_518_00000106857844363379778480000016208244683716936858_" transform="translate(-700.548 -4550.431)">
      <path id="Path_1356-2_00000165947935793815825620000009219960800595053986_" d="m2369.7 4763.6-16-9.5v18.8l16-9.3z" class="st4"/>
      <path id="Path_1357-2_00000026165721612164352490000014769089237247477382_" d="M2353.7 4772.9v-18.8l-17.8 10.3v.1l15.9 9.5 1.9-1.1z" class="st4"/>
      <path id="Path_1358-2_00000068649307005119280950000015078003684160117182_" d="m2369.7 4784-17.9 10.3V4774l7.2-4.2 3.1-1.8 7.6-4.4" class="st2"/>
      <path id="Path_1359-2_00000099643766867005856860000007927918669154826162_" d="m2351.8 4794.3-16-9.5-.1-20.3 16 9.5.1 20.3z" class="st3"/>
    </g>
    <g id="Group_566_00000010278822945358033150000002562161425006975626_" transform="translate(-1334.238 -3987.885)">
      <path id="Path_1433_00000044178656388758384930000000097675599451988147_" d="m2686 4123.9-75.8-45.2v88.9l75.8-43.7z" class="st3"/>
      <path id="Path_1434_00000145747436234777822890000000355115722049431480_" d="M2610.2 4167.7v-88.9l-84.5 48.8v.6l75.3 44.9 9.2-5.4z" class="st2"/>
      <g id="Group_75_00000081615413572301505160000015550859791904273080_" transform="translate(2496.72 4051.061)">
        <path id="Path_13_00000017482023772881643060000001627929288414267020_" d="m149.2 62.2-29.3-16.4-5.6 3.2 29.3 16.4 5.6-3.2z" class="st7"/>
        <path id="Path_14_00000021816683212721235510000003710587437302563763_" d="m143.7 136.8-29.3-16.4-.1-71.5 29.3 16.4.1 71.5z" class="st1"/>
        <path id="Path_15_00000067225970454798664920000003586865364557626032_" d="m149.2 62.2-.1 71.8-5.6 3.2.1-71.8 5.6-3.2z" class="st8"/>
        <path id="Path_16_00000013909633693406672690000002310009069516349347_" d="m108.8 184.6 36.5-21V58.1l-36.5 21v105.5z" class="st8"/>
        <path id="Path_17_00000167394452484107506760000009577331858075130275_" d="m122 173.9 17-9.8c1.6-.9 2.6-2.7 2.6-4.6V92c0-2.9-2.4-5.3-5.3-5.3-.9 0-1.8.2-2.6.7l-17 9.8c-1.6.9-2.6 2.7-2.6 4.6v67.5c0 2.9 2.4 5.3 5.3 5.3.8 0 1.8-.2 2.6-.7" class="st9"/>
        <path id="Path_18_00000099625673368241690570000011962184584157359005_" d="m108.8 184.7-37.5-21V58.2l37.5 21v105.5z" class="st1"/>
        <path id="Path_19_00000058550462818000103340000015419432934887647392_" d="m145.4 58.1-37.5-21-36.6 21 37.5 21 36.6-21z" class="st7"/>
        <path id="Path_20_00000148660661812149485730000004560376100269936010_" d="M104.6 88.2 75.3 71.8 69.7 75 99 91.4l5.6-3.2z" class="st7"/>
        <path id="Path_21_00000096747461645028043620000010658887962311199134_" d="m99.1 162.9-15.3-8.6-14-7.8-.1-71.5L99 91.4l.1 71.5z" class="st1"/>
        <path id="Path_22_00000108288250159188495250000000657659482177219501_" d="m104.6 88.2-.1 71.8-5.6 3.2.1-71.8 5.6-3.2z" class="st8"/>
        <path id="Path_23_00000080888469651451255220000013473186884893587353_" d="M141.6 22.1 112.3 5.7 83.8 22l29.3 16.4 28.5-16.3z" class="st7"/>
        <path id="Path_24_00000028285732474888894080000011629581000051401866_" d="M113.2 68.2 83.9 51.8 83.8 22l29.3 16.4.1 29.8z" class="st1"/>
        <path id="Path_25_00000139273962396354152470000002607335627093259687_" d="m141.6 22.1-.1 30L113 68.5l.1-30 28.5-16.4z" class="st8"/>
        <path id="Path_26_00000011011045557362328730000010754776234826696844_" d="M136.2 32v7.2l-4.5 2.6v-7.2l4.5-2.6z" class="st9"/>
        <path id="Path_27_00000181774069607588701010000001685219096707584662_" d="M124.4 38.5v7.2l-4.5 2.6v-7.2l4.5-2.6z" class="st9"/>
        <path id="Path_28_00000141417103758815015810000010671958495445985418_" d="M125.9 52.8v5.7l9.5 5-9.5-10.7z" class="st3"/>
        <path id="Path_29_00000026160114122800196460000012740142810266624187_" d="m134.4 47.8-8.5 5 9.5 10.7 6.9-4.8-7.9-10.9z" class="st2"/>
        <path id="Path_30_00000182506292635930221760000012492072156322357133_" d="M133.4 165.2v5.7l9.5 5-9.5-10.7z" class="st3"/>
        <path id="Path_31_00000017518055852678013970000017307288105227660946_" d="m141.9 160.3-8.5 5 9.5 10.7 6.9-4.7-7.9-11z" class="st2"/>
        <path id="Path_32_00000051370850545570463540000009887323219967218823_" d="M113.9 175.6v5.7l9.5 5-9.5-10.7z" class="st3"/>
        <path id="Path_33_00000091718147204248691170000015918777740309688731_" d="m122.4 170.6-8.5 5 9.5 10.7 6.9-4.8-7.9-10.9z" class="st2"/>
      </g>
      <path id="Path_1435_00000150085088196911694580000015754547355002617239_" d="m2686 4220.2-84.7 48.9-.2-61.4-.1-16.8v-18l34.2-19.8 14.7-8.5 36-20.8" class="st4"/>
      <path id="Path_1436_00000146461639176691934150000003253235912241448886_" d="m2601.3 4269.1-75.7-45-.3-96.2 75.7 45.1.3 96.1z" class="st3"/>
    </g>
    <g id="Group_567_00000101095407531214748980000009554478442774255294_" transform="translate(-1533.264 -3922.2)">
      <path id="Path_1437_00000101821001474709877610000015857055239525154202_" d="m3418.7 4138.2-87.2-51.9v102.3l87.2-50.4z" class="st3"/>
      <path id="Path_1438_00000046334893088404949760000012069218233907824531_" d="M3331.5 4188.5v-102.3l-97.1 56.1v.6l86.6 51.6 10.5-6z" class="st2"/>
      <g id="Group_96_00000119836293205499622580000012176484339653133217_" transform="translate(3178.99 4045.374)">
        <path id="Path_13-2_00000000202583283369997080000018040842864997010874_" d="m198.8 80.4-36.9-20.7-7.1 4 36.9 20.7 7.1-4z" class="st7"/>
        <path id="Path_14-2_00000136371677814923584120000010789798801774828952_" d="M191.9 174.5 155 153.8l-.1-90 36.9 20.7.1 90z" class="st1"/>
        <path id="Path_16-2_00000014605167903756158310000000411722148638126526_" d="m148 234.7 46-26.5V75.3l-46 26.5v132.9z" class="st8"/>
        <path id="Path_18-2_00000136399780644772880250000005305422738238991254_" d="m148 234.8-47.3-26.5V75.5L148 102v132.8z" class="st1"/>
        <path id="Path_19-2_00000178907723911270661110000012968054967546494358_" d="m194 75.3-47.3-26.5-46.1 26.5 47.3 26.5L194 75.3z" class="st7"/>
        <path id="Path_20-2_00000095314341982011042240000003683186260787856527_" d="m142.6 113.3-36.9-20.7-7.1 4 36.9 20.7 7.1-4z" class="st7"/>
        <path id="Path_22-2_00000095323157016425826210000001420365989379079325_" d="m142.6 113.3-.1 90.4-7.1 4 .1-90.4 7.1-4z" class="st8"/>
        <path id="Path_23-2_00000119099964345515815930000002853997418364210593_" d="M179 29.9 142.1 9.2l-36 20.7L143 50.6l36-20.7z" class="st7"/>
        <path id="Path_24-2_00000063600844972192546610000003170239427145498291_" d="m143.2 88.1-36.9-20.7-.1-37.5 36.9 20.7.1 37.5z" class="st1"/>
        <path id="Path_25-2_00000168088609111236744250000004557002106719880584_" d="M179 29.9v37.9l-36 20.7.1-37.8L179 29.9z" class="st8"/>
        <path id="Path_15-2_00000040553819282131135020000007591851385043837068_" d="m198.8 80.4-.1 90.4-7.1 4 .1-90.4 7.1-4z" class="st8"/>
        <path id="Path_21-2_00000168112133475607773270000010530786988079284891_" d="m135.7 207.3-19.3-10.8-17.6-9.9-.1-90 36.9 20.7.1 90z" class="st1"/>
      </g>
      <path id="Path_1439_00000064345137158947059040000006928824389020605593_" d="m3418.6 4248.9-97.4 56.2-.2-70.6-.1-19.3-.1-20.7 39.4-22.7 16.9-9.8 41.4-23.9" class="st4"/>
      <path id="Path_1440_00000011015675491708510080000005763640023683278005_" d="m3321.2 4305.1-87-51.8-.4-110.7 87.1 51.9.3 110.6z" class="st3"/>
    </g>
  </g>
</svg>
